<?xml version="1.0" encoding="utf-8"?>
<!-- Generator: Adobe Illustrator 23.0.1, SVG Export Plug-In . SVG Version: 6.00 Build 0)  -->
<svg version="1.1" id="Layer_1" xmlns="http://www.w3.org/2000/svg" xmlns:xlink="http://www.w3.org/1999/xlink" x="0px" y="0px"
	 viewBox="0 0 757.7 460" style="enable-background:new 0 0 757.7 460;" xml:space="preserve">
<style type="text/css">
	.st0{fill-rule:evenodd;clip-rule:evenodd;fill:#040404;}
	.st1{fill-rule:evenodd;clip-rule:evenodd;fill:#4D4D4D;}
	.st2{fill-rule:evenodd;clip-rule:evenodd;fill:#333333;}
	.st3{fill-rule:evenodd;clip-rule:evenodd;fill:#4C4C4C;}
	.st4{fill-rule:evenodd;clip-rule:evenodd;fill:#282828;}
	.st5{fill-rule:evenodd;clip-rule:evenodd;fill:url(#SVGID_1_);}
	.st6{fill-rule:evenodd;clip-rule:evenodd;fill:#1D1E21;}
	.st7{fill-rule:evenodd;clip-rule:evenodd;fill:#0D0F12;}
	.st8{fill-rule:evenodd;clip-rule:evenodd;fill:#1C1E20;}
	.st9{fill-rule:evenodd;clip-rule:evenodd;fill:#DCDDE0;}
	.st10{fill-rule:evenodd;clip-rule:evenodd;fill:#CECECE;}
	.st11{clip-path:url(#SVGID_3_);}
	.st12{clip-path:url(#SVGID_5_);fill:#E94647;}
</style>
<title>devices copy</title>
<desc>Created with Sketch.</desc>
<g id="Page-1_1_">
	<g id="devices-copy_1_">
		<path class="st0" d="M646.3,28.2H115.6c-18.4,0-33.2,14.9-33.2,33.3V421h597.1V61.4C679.5,43.1,664.6,28.2,646.3,28.2z
			 M667.8,394.1c0,1.2-1,2.2-2.2,2.2H99.1c-1.2,0-2.2-1-2.2-2.2V56c0-1.2,1-2.2,2.2-2.2h566.5c1.2,0,2.2,1,2.2,2.2V394.1z"/>
		<ellipse id="Oval_1_" class="st1" cx="378.4" cy="40.4" rx="3.6" ry="3.6"/>
		<path class="st2" d="M744.3,427.2c0,6-23.7,14.7-28.1,14.7H44.7c-4.4,0-28.1-8.7-28.1-14.7H744.3z"/>
		<path class="st3" d="M8.5,420.2h740.9v2.6c0,6.3-9.7,11.5-21.6,11.5H29.5c-5.6,0-10.9-1.2-14.9-3.3s-6.2-4.9-6.2-7.9L8.5,420.2
			L8.5,420.2z"/>
		<path class="st4" d="M60.4,444.8c-4.2,0-26.8-3.8-26.8-6.4h693c0,2.6-22.6,6.4-26.8,6.4"/>
		
			<linearGradient id="SVGID_1_" gradientUnits="userSpaceOnUse" x1="-1642.4855" y1="108.86" x2="-1642.4855" y2="109.3622" gradientTransform="matrix(109.19 0 0 11.36 179718.2344 -815.5012)">
			<stop  offset="0" style="stop-color:#9C9FA0"/>
			<stop  offset="0.24" style="stop-color:#A2A5A6"/>
			<stop  offset="1" style="stop-color:#4C4D4E"/>
		</linearGradient>
		<path class="st5" d="M426.8,421.1c-0.1,3.1-4.8,5.6-10.6,5.7h-82.8c-6,0-9.7-2.9-9.7-5.7H426.8z"/>
		<path class="st6" d="M272.9,442.9c2-1.6,7.7-1.5,9.1,0.1C279.1,443.8,275.9,443.6,272.9,442.9z"/>
		<path class="st6" d="M473.8,443.2c2-1.6,7.7-1.5,9.1,0.1C479.9,444.1,476.7,444.1,473.8,443.2z"/>
		<path class="st6" d="M60.1,442.5c2-1.6,7.7-1.5,9.1,0.1C66.3,443.5,63.1,443.4,60.1,442.5z"/>
		<path class="st6" d="M683.4,443c2-1.6,7.7-1.5,9.1,0.1C689.5,444,686.4,444,683.4,443z"/>
		<path class="st7" d="M676.5,422.8c-0.5,0.2-1,0.4-1.5,0.4h-21.7c-0.5,0.1-1.1-0.1-1.5-0.5C660.1,422.5,668.3,422.5,676.5,422.8z"
			/>
		<path class="st8" d="M651.4,424.4c-0.9-1.2-1.8-2.3,0.4-3.1c5.5,0.5,11,0.1,16.5,0.2c2.7,0.2,5.5,0.1,8.2-0.2
			c2.2,1.1,1.2,2.1,0,3.1c-1.5,0.6-3,0.3-4.5,0.3c-6,0-12,0-18,0C653.1,424.8,652.2,425.1,651.4,424.4z"/>
		<path class="st9" d="M651.4,424.4l25.1,0.1c0,0.1,0,0.3,0,0.4c-8.3,0-16.6,0.1-24.9,0.1c-0.1,0-0.2-0.1-0.2-0.1
			C651.4,424.8,651.4,424.5,651.4,424.4z"/>
		<path class="st7" d="M676.5,421.4c-0.5,0.2-1,0.4-1.5,0.4h-21.7c-0.5,0.1-1.1-0.1-1.5-0.5C660.1,421.1,668.3,421,676.5,421.4z"/>
		<path class="st7" d="M676.5,421.4c-0.5,0.2-1,0.4-1.5,0.4h-21.7c-0.5,0.1-1.1-0.1-1.5-0.5C660.1,421.1,668.3,421,676.5,421.4z"/>
		<path class="st8" d="M651.4,424.4c-0.9-1.2-1.8-2.3,0.4-3.1c5.5,0.5,11,0.1,16.5,0.2c2.7,0.2,5.5,0.1,8.2-0.2
			c2.2,1.1,1.2,2.1,0,3.1c-1.5,0.6-3,0.3-4.5,0.3c-6,0-12,0-18,0C653.1,424.8,652.2,425.1,651.4,424.4z"/>
		<path class="st10" d="M651.4,424.4l25.1,0.1c0,0.1,0,0.3,0,0.4c-8.3,0-16.6,0.1-24.9,0.1c-0.1,0-0.2-0.1-0.2-0.1
			C651.4,424.8,651.4,424.5,651.4,424.4z"/>
		<path class="st7" d="M676.5,421.4c-0.5,0.2-1,0.4-1.5,0.4h-21.7c-0.5,0.1-1.1-0.1-1.5-0.5C660.1,421.1,668.3,421,676.5,421.4z"/>
	</g>
</g>
<g>
	<g id="Artwork_3_1_">
		<g>
			<g>
				<g>
					<defs>
						<rect id="SVGID_2_" x="329.5" y="172.5" width="98.7" height="94.9"/>
					</defs>
					<clipPath id="SVGID_3_">
						<use xlink:href="#SVGID_2_"  style="overflow:visible;"/>
					</clipPath>
					<g class="st11">
						<g>
							<g>
								<defs>
									<rect id="SVGID_4_" x="329.5" y="172.5" width="98.7" height="94.9"/>
								</defs>
								<clipPath id="SVGID_5_">
									<use xlink:href="#SVGID_4_"  style="overflow:visible;"/>
								</clipPath>
								<path class="st12" d="M381.1,267.5c-20.2-10.8-32.6-25-43.3-40.2c-9.5-13.3-11.4-28.8-1.9-43.3c9.2-14.6,22.5-12.7,36.1-6.6
									c6.3,2.8,12.3,1.3,18.3-1.3c10.8-4.7,21.2-5.1,29.7,4.4c10.1,11.4,10.8,24.7,5.1,38C416.2,239,398.2,251.6,381.1,267.5"/>
							</g>
						</g>
					</g>
				</g>
			</g>
		</g>
	</g>
</g>
</svg>
